# xmcd
#
# Track frame offsets: 
#        150
#        13648
#        26317
#        39109
#        50318
#        61864
#        73381
#        84600
#        97591
#        107560
#        118241
#        129733
#        143694
#        158201
#        171670
#        181152
#        193623
#        206364
#        224718
#        237442
#
# Disc length: 3338 seconds
#
# Revision: 2
# Processed by: cddbd v1.5.2PL0 Copyright (c) Steve Scherf et al.
# Submitted via: ExactAudioCopyFreeDBPlugin 1.0
#
DISCID=170d0814
DTITLE=Bo Diddley - ABC Of The Blues - Vol. 08 Bo Diddley
DYEAR=2010
DGENRE=Blues
TTITLE0=I'm A Man
TTITLE1=Bo Diddley
TTITLE2=Pretty Thing
TTITLE3=Bring It To Jerome
TTITLE4=Diddy Wah Diddy
TTITLE5=I'm Looking For A Woman
TTITLE6=Who Do You Love?
TTITLE7=You Don't Love Me
TTITLE8=Hey Bo Diddley
TTITLE9=Mona (I Need You Baby)
TTITLE10=Say Boss Man
TTITLE11=Before You Accuse Me
TTITLE12=Say Man
TTITLE13=The Clock Strikes Twelve
TTITLE14=Crackin' Up
TTITLE15=Don't Let It Go (Hold On To What You Got)
TTITLE16=Mumblin' Guitar
TTITLE17=She's Alright
TTITLE18=Road Runner
TTITLE19=The Story Of Bo Diddley
EXTD=
EXTT0=
EXTT1=
EXTT2=
EXTT3=
EXTT4=
EXTT5=
EXTT6=
EXTT7=
EXTT8=
EXTT9=
EXTT10=
EXTT11=
EXTT12=
EXTT13=
EXTT14=
EXTT15=
EXTT16=
EXTT17=
EXTT18=
EXTT19=
PLAYORDER=
